<svg width="16" height="16" viewBox="0 0 16 16" fill="none" xmlns="http://www.w3.org/2000/svg">
<g id="Icons">
<g id="Profile 1">
<g id="Vector">
<path clip-rule="evenodd" d="M7.99998 0.833344C6.25108 0.833344 4.83331 2.25111 4.83331 4.00001C4.83331 5.74891 6.25108 7.16668 7.99998 7.16668C9.74888 7.16668 11.1666 5.74891 11.1666 4.00001C11.1666 2.25111 9.74888 0.833344 7.99998 0.833344ZM5.83331 4.00001C5.83331 2.80339 6.80336 1.83334 7.99998 1.83334C9.1966 1.83334 10.1666 2.80339 10.1666 4.00001C10.1666 5.19663 9.1966 6.16668 7.99998 6.16668C6.80336 6.16668 5.83331 5.19663 5.83331 4.00001Z" />
<path clip-rule="evenodd" d="M5.99998 8.16668C4.25108 8.16668 2.83331 9.58444 2.83331 11.3333C2.83331 13.0822 4.25108 14.5 5.99998 14.5H9.99998C11.7489 14.5 13.1666 13.0822 13.1666 11.3333C13.1666 9.58444 11.7489 8.16668 9.99998 8.16668H5.99998ZM3.83331 11.3333C3.83331 10.1367 4.80336 9.16668 5.99998 9.16668H9.99998C11.1966 9.16668 12.1666 10.1367 12.1666 11.3333C12.1666 12.53 11.1966 13.5 9.99998 13.5H5.99998C4.80336 13.5 3.83331 12.53 3.83331 11.3333Z" />
</g>
</g>
</g>
</svg>
