<svg width="16" height="16" viewBox="0 0 16 16" fill="none" xmlns="http://www.w3.org/2000/svg">
<g id="Icons">
<g id="Right 2">
<path id="Vector" d="M7.01866 4.3115C6.82253 4.11711 6.50595 4.11852 6.31156 4.31465C6.11717 4.51078 6.11858 4.82736 6.31471 5.02175L7.49003 6.18662C7.96702 6.65938 8.29422 6.98474 8.51562 7.26043C8.73069 7.52823 8.80447 7.70024 8.82411 7.85429C8.83644 7.95102 8.83644 8.0489 8.82411 8.14563C8.80447 8.29968 8.73069 8.47169 8.51562 8.73949C8.29422 9.01517 7.96702 9.34053 7.49003 9.81329L6.31471 10.9782C6.11858 11.1726 6.11717 11.4891 6.31156 11.6853C6.50595 11.8814 6.82253 11.8828 7.01866 11.6884L8.21515 10.5026C8.66579 10.0559 9.03411 9.6909 9.29532 9.36565C9.56694 9.02744 9.76356 8.68414 9.81608 8.27207C9.83911 8.09138 9.83911 7.90854 9.81608 7.72785C9.76356 7.31578 9.56694 6.97248 9.29532 6.63427C9.03411 6.30902 8.6658 5.94399 8.21515 5.49736L7.01866 4.3115Z" />
</g>
</g>
</svg>
