<svg width="20" height="20" viewBox="0 0 32 32" fill="none" xmlns="http://www.w3.org/2000/svg">
<g id="Icons">
<g id="Close">
<path id="Vector" d="M26.0405 7.37361C26.431 6.98309 26.431 6.34992 26.0405 5.9594C25.65 5.56887 25.0168 5.56887 24.6263 5.9594L16 14.5856L7.37379 5.9594C6.98327 5.56888 6.3501 5.56888 5.95958 5.9594C5.56906 6.34993 5.56906 6.98309 5.95958 7.37361L14.5858 15.9999L5.95962 24.6261C5.56909 25.0166 5.56909 25.6498 5.95962 26.0403C6.35014 26.4308 6.98331 26.4308 7.37383 26.0403L16 17.4141L24.6262 26.0403C25.0168 26.4308 25.6499 26.4308 26.0405 26.0403C26.431 25.6498 26.431 25.0166 26.0405 24.6261L17.4142 15.9999L26.0405 7.37361Z" />
</g>
</g>
</svg>
