<svg xmlns="http://www.w3.org/2000/svg" width="16" height="16" viewBox="0 0 16 16" fill="none">
  <g clip-path="url(#clip0_1_6378)">
    <path clip-rule="evenodd" d="M8.14054 0.83592C8.04688 0.832485 7.95313 0.832485 7.85947 0.83592C7.24122 0.858601 6.68451 1.06883 6.0741 1.41879C5.47926 1.75983 4.79443 2.2574 3.92551 2.88871L3.87828 2.92303C3.00935 3.55434 2.32451 4.05189 1.81634 4.51224C1.29488 4.98463 0.922902 5.44913 0.710281 6.03011C0.678072 6.11812 0.649102 6.20728 0.623429 6.29742C0.453948 6.89242 0.481857 7.48685 0.626064 8.17553C0.766595 8.84664 1.02818 9.65171 1.36008 10.6732L2.51646 14.2321C2.7657 14.9992 3.48054 15.5186 4.2871 15.5186C5.31532 15.5186 6.14886 14.685 6.14886 13.6568V11.8242C6.14886 11.3947 6.49708 11.0465 6.92662 11.0465H9.07339C9.50293 11.0465 9.85115 11.3947 9.85115 11.8242V13.6568C9.85115 14.685 10.6847 15.5186 11.7129 15.5186C12.5195 15.5186 13.2343 14.9992 13.4836 14.2321L14.6399 10.6732C14.9718 9.65169 15.2334 8.84664 15.3739 8.17552C15.5182 7.48685 15.5461 6.89242 15.3766 6.29742C15.3509 6.20729 15.3219 6.11813 15.2897 6.03011C15.0771 5.44913 14.7051 4.98463 14.1837 4.51224C13.6755 4.05189 12.9907 3.55433 12.1217 2.92302L12.0745 2.8887C11.2056 2.25739 10.5207 1.75983 9.92591 1.41879C9.3155 1.06883 8.75879 0.858601 8.14054 0.83592ZM7.89613 1.83525C7.96536 1.83271 8.03465 1.83271 8.10388 1.83525C8.50083 1.84981 8.89619 1.98113 9.42853 2.28633C9.97104 2.59736 10.6126 3.06265 11.5103 3.71489C12.4081 4.36713 13.0488 4.83351 13.5123 5.25336C13.9671 5.66533 14.2141 6.00076 14.3506 6.37379C14.3744 6.43884 14.3959 6.50474 14.4148 6.57136C14.5237 6.95339 14.5209 7.36998 14.3952 7.97057C14.267 8.58265 14.0227 9.3366 13.6798 10.3919L12.5325 13.9231C12.4171 14.2782 12.0862 14.5186 11.7129 14.5186C11.237 14.5186 10.8511 14.1328 10.8511 13.6568V11.8242C10.8511 10.8424 10.0552 10.0465 9.07339 10.0465H6.92662C5.94479 10.0465 5.14886 10.8424 5.14886 11.8242V13.6568C5.14886 14.1328 4.76304 14.5186 4.2871 14.5186C3.91376 14.5186 3.58288 14.2782 3.46752 13.9231L2.32017 10.3919C1.97726 9.3366 1.733 8.58265 1.60484 7.97057C1.47907 7.36998 1.47636 6.95339 1.58517 6.57136C1.60415 6.50474 1.62556 6.43884 1.64937 6.37379C1.78589 6.00076 2.03295 5.66533 2.48771 5.25336C2.95117 4.83351 3.59194 4.36713 4.48967 3.71489C5.3874 3.06265 6.02897 2.59736 6.57148 2.28633C7.10382 1.98113 7.49918 1.84981 7.89613 1.83525Z" />
  </g>
  <defs>
    <clipPath id="clip0_1_6378">
      <rect width="16" height="16" fill="white"/>
    </clipPath>
  </defs>
</svg>