<svg width="16" height="16" viewBox="0 0 16 16" fill="none" xmlns="http://www.w3.org/2000/svg">
<g id="Icons">
<g id="Ticket Star 1">
<g id="Vector">
<path clip-rule="evenodd" d="M4.29634 2.16666C2.3838 2.16666 0.833374 3.71708 0.833374 5.62962C0.833374 6.18411 1.15136 6.68946 1.65124 6.92941L1.97616 7.08536C2.74351 7.45369 2.74351 8.54629 1.97616 8.91461L1.65124 9.07057C1.15136 9.31052 0.833374 9.81587 0.833374 10.3704C0.833374 12.2829 2.38379 13.8333 4.29634 13.8333H11.7037C13.6163 13.8333 15.1667 12.2829 15.1667 10.3704C15.1667 9.81587 14.8487 9.31052 14.3488 9.07057L14.0239 8.91461C13.2566 8.54629 13.2566 7.45369 14.0239 7.08536L14.3488 6.92941C14.8487 6.68946 15.1667 6.18411 15.1667 5.62962C15.1667 3.71708 13.6163 2.16666 11.7037 2.16666H4.29634ZM1.83337 5.62962C1.83337 4.26936 2.93608 3.16666 4.29634 3.16666H11.7037C13.064 3.16666 14.1667 4.26936 14.1667 5.62962C14.1667 5.79952 14.0693 5.95436 13.9161 6.02788L13.5912 6.18384C12.0675 6.91522 12.0675 9.08476 13.5912 9.81614L13.9161 9.9721C14.0693 10.0456 14.1667 10.2005 14.1667 10.3704C14.1667 11.7306 13.064 12.8333 11.7037 12.8333H4.29634C2.93608 12.8333 1.83337 11.7306 1.83337 10.3704C1.83337 10.2005 1.93081 10.0456 2.08398 9.9721L2.40889 9.81614C3.9326 9.08476 3.9326 6.91522 2.40889 6.18384L2.08398 6.02788C1.93081 5.95436 1.83337 5.79952 1.83337 5.62962Z" />
<path clip-rule="evenodd" d="M9.13199 6.34154C8.77905 5.21947 7.22103 5.21947 6.86809 6.34154C6.8387 6.43496 6.76121 6.48315 6.69006 6.48315C5.5064 6.48315 5.09015 7.99833 5.98512 8.67002C6.05278 8.72079 6.08862 8.81964 6.05848 8.91548C5.88625 9.46304 6.10788 9.97739 6.48549 10.2608C6.86544 10.546 7.42739 10.612 7.89537 10.2608C7.95891 10.2131 8.04117 10.2131 8.10472 10.2608C8.57269 10.612 9.13464 10.546 9.51459 10.2608C9.8922 9.97739 10.1138 9.46304 9.94161 8.91548C9.91146 8.81964 9.9473 8.72079 10.015 8.67002C10.9099 7.99833 10.4937 6.48315 9.31002 6.48315C9.23888 6.48315 9.16138 6.43496 9.13199 6.34154ZM7.82201 6.64159C7.8814 6.45279 8.11868 6.45279 8.17807 6.64159C8.33308 7.13442 8.78444 7.48315 9.31002 7.48315C9.36124 7.48315 9.39406 7.49835 9.41851 7.51789C9.4464 7.54017 9.4729 7.57657 9.48805 7.62475C9.51866 7.72205 9.4923 7.81197 9.4147 7.87021C8.9996 8.18175 8.83343 8.72513 8.98768 9.21553C9.02162 9.32341 8.98322 9.40929 8.91433 9.46099C8.87906 9.48746 8.84227 9.49897 8.81161 9.49992C8.78515 9.50074 8.74973 9.49458 8.70498 9.46099C8.28577 9.14637 7.71431 9.14637 7.2951 9.46099C7.25035 9.49458 7.21493 9.50074 7.18847 9.49992C7.15781 9.49897 7.12102 9.48746 7.08575 9.46099C7.01686 9.40929 6.97846 9.32341 7.0124 9.21553C7.16665 8.72513 7.00049 8.18175 6.58538 7.87021C6.50778 7.81197 6.48142 7.72205 6.51203 7.62475C6.52719 7.57657 6.55368 7.54017 6.58157 7.51789C6.60602 7.49835 6.63884 7.48315 6.69006 7.48315C7.21564 7.48315 7.667 7.13442 7.82201 6.64159Z" />
</g>
</g>
</g>
</svg>
