<svg width="16" height="16" viewBox="0 0 16 16" fill="none" xmlns="http://www.w3.org/2000/svg">
<g id="Icons">
<g id="Location Tick">
<g id="Vector">
<path d="M10.3894 5.64704C10.5626 5.43201 10.5288 5.11725 10.3137 4.94399C10.0987 4.77073 9.78394 4.80458 9.61068 5.01961L8.26301 6.69213C7.9863 7.03555 7.81169 7.25032 7.66638 7.38603C7.5981 7.4498 7.55448 7.47817 7.52941 7.49072C7.51075 7.50006 7.50408 7.50001 7.5005 7.49999H7.49954C7.49596 7.50001 7.48929 7.50006 7.47063 7.49072C7.44556 7.47817 7.40194 7.4498 7.33366 7.38603C7.18835 7.25032 7.01374 7.03555 6.73702 6.69213L6.38936 6.26066C6.2161 6.04563 5.90133 6.01178 5.6863 6.18504C5.47128 6.3583 5.43742 6.67306 5.61068 6.88809L5.98007 7.34652C6.22841 7.65477 6.44751 7.92673 6.65112 8.11688C6.86973 8.32104 7.14153 8.49999 7.50002 8.49999C7.85851 8.49999 8.13031 8.32104 8.34892 8.11688C8.55254 7.92672 8.77164 7.65476 9.01999 7.3465L10.3894 5.64704Z" />
<path clip-rule="evenodd" d="M8.00002 0.166656C4.74446 0.166656 2.16669 2.99517 2.16669 6.40579C2.16669 7.4996 2.71009 8.78762 3.39378 9.99634C4.08854 11.2246 4.97527 12.4508 5.75271 13.4422L5.77864 13.4753C6.15811 13.9592 6.48138 14.3715 6.79485 14.6562C7.13685 14.9669 7.51398 15.1703 8.00002 15.1703C8.48606 15.1703 8.86319 14.9669 9.20519 14.6562C9.51867 14.3715 9.84193 13.9592 10.2214 13.4752L10.2473 13.4422C11.0248 12.4508 11.9115 11.2246 12.6063 9.99634C13.2899 8.78762 13.8334 7.4996 13.8334 6.40579C13.8334 2.99517 11.2556 0.166656 8.00002 0.166656ZM3.16669 6.40579C3.16669 3.47713 5.36454 1.16666 8.00002 1.16666C10.6355 1.16666 12.8334 3.47713 12.8334 6.40579C12.8334 7.22345 12.4069 8.31757 11.7359 9.50401C11.0758 10.6709 10.2228 11.8529 9.46043 12.8251C9.04779 13.3513 8.7761 13.695 8.53281 13.916C8.31092 14.1176 8.1628 14.1703 8.00002 14.1703C7.83724 14.1703 7.68912 14.1176 7.46723 13.916C7.22394 13.695 6.95225 13.3513 6.53961 12.8251C5.77721 11.8529 4.92421 10.6709 4.26419 9.50401C3.5931 8.31757 3.16669 7.22345 3.16669 6.40579Z" />
</g>
</g>
</g>
</svg>
